<svg xmlns="http://www.w3.org/2000/svg" xmlns:xlink="http://www.w3.org/1999/xlink" viewBox="0 0 194.47 82.7"><defs><style>.cls-1{fill:#231f20;}.cls-2{fill:url(#radial-gradient);}.cls-3{fill:url(#radial-gradient-2);}.cls-4{fill:#f7a280;opacity:0.5;}.cls-5{fill:#fff;}</style><radialGradient id="radial-gradient" cx="54.9" cy="46.61" r="13.16" gradientUnits="userSpaceOnUse"><stop offset="0" stop-color="#e69a80"/><stop offset="1" stop-color="#ad4860"/></radialGradient><radialGradient id="radial-gradient-2" cx="171.1" cy="46.61" r="13.16" xlink:href="#radial-gradient"/></defs><g id="Layer_1" data-name="Layer 1"><g id="ears-beast"><g id="eyeline"><path class="cls-1" d="M158.53,37.73c-6.29,8.47-9.81,26.29-9.44,38.88,24.16-7.78,34.62-18.33,37.21-22.41,2.78-4.34,12.78-26.66,14.63-35.81C190.19,19.77,165.94,29,158.53,37.73Z" transform="translate(-15.78 -5.95)"/><path class="cls-1" d="M25.07,18.39C26.92,27.54,36.92,49.86,39.7,54.2c2.59,4.08,13,14.63,37.21,22.41C77.28,64,73.76,46.2,67.47,37.73,60.06,29,35.81,19.77,25.07,18.39Z" transform="translate(-15.78 -5.95)"/></g><g id="iris_blue"><path class="cls-2" d="M54.74,33.75c-6.91-1.79-14,5.87-12.93,12.92,1.15,7.41,5.91,11.7,12.93,12.92s15.4-6.23,12.92-12.92C65.07,39.68,61,35.38,54.74,33.75Z" transform="translate(-15.78 -5.95)"/><path class="cls-3" d="M171.26,33.75c-6.28,1.63-10.33,5.93-12.92,12.92-2.48,6.69,5.89,14.15,12.92,12.92S183,54.08,184.19,46.67C185.27,39.62,178.17,32,171.26,33.75Z" transform="translate(-15.78 -5.95)"/><path class="cls-4" d="M42.16,48.35a14,14,0,0,0,6.31,8.95A120.25,120.25,0,0,1,57.08,46,49.35,49.35,0,0,0,42.16,48.35Z" transform="translate(-15.78 -5.95)"/><path class="cls-4" d="M157.91,48.82c-.15,3.35,2,6.63,5.09,8.71A115.11,115.11,0,0,1,171.08,47,49.67,49.67,0,0,0,157.91,48.82Z" transform="translate(-15.78 -5.95)"/></g><g id="pupils"><path class="cls-1" d="M171,42.93a3.61,3.61,0,1,0,3.61,3.61A3.61,3.61,0,0,0,171,42.93Z" transform="translate(-15.78 -5.95)"/><path class="cls-1" d="M55,42.93a3.61,3.61,0,1,0,3.61,3.61A3.61,3.61,0,0,0,55,42.93Z" transform="translate(-15.78 -5.95)"/></g><path class="cls-5" d="M63,45.09a8.45,8.45,0,0,0-5.55,1.23,13.72,13.72,0,0,1,5.49.93L63,45.7" transform="translate(-15.78 -5.95)"/><path class="cls-5" d="M177,45.09a8.45,8.45,0,0,0-5.55,1.23,13.72,13.72,0,0,1,5.49.93L177,45.7" transform="translate(-15.78 -5.95)"/></g><path d="M139.54,56a47.1,47.1,0,0,1,3.66-16.5c.37-.89-1.08-1.28-1.45-.4A48.61,48.61,0,0,0,138,56a.75.75,0,0,0,1.5,0Z" transform="translate(-15.78 -5.95)"/><path d="M152.79,32A38.8,38.8,0,0,1,166.2,17.28c.81-.52.06-1.82-.76-1.3a40.42,40.42,0,0,0-13.95,15.25c-.44.86.85,1.62,1.3.76Z" transform="translate(-15.78 -5.95)"/><path d="M176.37,18.41A20,20,0,0,1,182.73,15a26.11,26.11,0,0,1,8.77-1.73.75.75,0,0,0,0-1.5,27.55,27.55,0,0,0-9.4,1.87,21.63,21.63,0,0,0-6.79,3.72c-.73.64.33,1.7,1.06,1.07Z" transform="translate(-15.78 -5.95)"/><path d="M139.49,30.6a38.71,38.71,0,0,1,8.26-11.08c.7-.66-.36-1.72-1.07-1.06a40,40,0,0,0-8.49,11.38c-.43.86.87,1.62,1.3.76Z" transform="translate(-15.78 -5.95)"/><path d="M126.26,49.66a55.22,55.22,0,0,1,2.88-11.59c.33-.91-1.12-1.3-1.45-.4a55.16,55.16,0,0,0-2.88,11.6.78.78,0,0,0,.52.92.76.76,0,0,0,.93-.53Z" transform="translate(-15.78 -5.95)"/><path d="M130.6,71.93V62.14a.75.75,0,0,0-1.5,0v9.79a.75.75,0,0,0,1.5,0Z" transform="translate(-15.78 -5.95)"/><path d="M138.9,77.56l.41-2.53a.81.81,0,0,0-.08-.57.74.74,0,0,0-1.37.18l-.41,2.52a.83.83,0,0,0,.08.58.75.75,0,0,0,.45.35.76.76,0,0,0,.92-.53Z" transform="translate(-15.78 -5.95)"/><path d="M150.3,86.22c4.06,1,8.23,2,12.4,1,.94-.22.54-1.67-.4-1.44-3.89.93-7.82-.06-11.6-1a.75.75,0,0,0-.4,1.44Z" transform="translate(-15.78 -5.95)"/><path d="M164.3,83.22c7.78,1.66,15.26-.67,22.61-3,.91-.3.52-1.74-.4-1.45-7.07,2.25-14.31,4.6-21.81,3-.94-.2-1.34,1.24-.4,1.44Z" transform="translate(-15.78 -5.95)"/><path d="M168.82,75.19a30.31,30.31,0,0,0,9.6-3c.86-.43.1-1.73-.76-1.29a29.32,29.32,0,0,1-9.24,2.83.76.76,0,0,0-.52.93.77.77,0,0,0,.92.52Z" transform="translate(-15.78 -5.95)"/><path d="M185.81,72.18c6.41-.94,11.55-5.28,15.34-10.3.58-.77-.72-1.52-1.3-.76-3.57,4.74-8.42,8.73-14.44,9.62-.95.13-.55,1.58.4,1.44Z" transform="translate(-15.78 -5.95)"/><path d="M192.68,57.22a33.93,33.93,0,0,0,5.74-11.16.75.75,0,0,0-1.44-.4,32.24,32.24,0,0,1-5.36,10.5.77.77,0,0,0,0,1.06.75.75,0,0,0,1.06,0Z" transform="translate(-15.78 -5.95)"/><path d="M200.12,36.45a45.84,45.84,0,0,0,2.54-6.73.75.75,0,0,0-1.44-.4,45.34,45.34,0,0,1-2.39,6.38.77.77,0,0,0,.27,1,.75.75,0,0,0,1-.27Z" transform="translate(-15.78 -5.95)"/><path d="M208.22,47.7a29.77,29.77,0,0,0,2-9.2.75.75,0,0,0-1.5,0,28.74,28.74,0,0,1-2,8.8c-.31.92,1.14,1.31,1.44.4Z" transform="translate(-15.78 -5.95)"/><path d="M200.7,11.22c.79-.24,1.58-.49,2.39-.66a12.35,12.35,0,0,1,1.39-.21,19.52,19.52,0,0,1,2-.1.75.75,0,0,0,0-1.5,18.8,18.8,0,0,0-3.74.35c-.83.17-1.64.43-2.46.68a.75.75,0,0,0,.4,1.44Z" transform="translate(-15.78 -5.95)"/><path d="M171,8.81a25.21,25.21,0,0,1,8.52-1.36.75.75,0,0,0,0-1.5,26.47,26.47,0,0,0-8.91,1.41c-.91.31-.52,1.76.39,1.45Z" transform="translate(-15.78 -5.95)"/><path d="M184.82,65.07l3.39-1.78a.75.75,0,0,0-.75-1.3l-3.4,1.79a.75.75,0,0,0-.27,1,.76.76,0,0,0,1,.27Z" transform="translate(-15.78 -5.95)"/><path d="M145.72,68.94V63.72A.77.77,0,0,0,145,63a.76.76,0,0,0-.75.75v5.22a.75.75,0,0,0,1.5,0Z" transform="translate(-15.78 -5.95)"/></g><g id="Layer_2" data-name="Layer 2"><path d="M88,57a48.38,48.38,0,0,0-3.71-16.9c-.37-.88-1.82-.49-1.45.4A47.1,47.1,0,0,1,86.49,57c0,1,1.54,1,1.5,0Z" transform="translate(-15.78 -5.95)"/><path d="M74.54,32.23A40.42,40.42,0,0,0,60.59,17c-.81-.52-1.56.78-.75,1.3A38.88,38.88,0,0,1,73.25,33c.44.86,1.74.1,1.29-.76Z" transform="translate(-15.78 -5.95)"/><path d="M50.73,18.34a21.79,21.79,0,0,0-6.8-3.72,27.51,27.51,0,0,0-9.4-1.87.75.75,0,0,0,0,1.5A26.11,26.11,0,0,1,43.3,16a20.06,20.06,0,0,1,6.37,3.43c.72.63,1.79-.43,1.06-1.07Z" transform="translate(-15.78 -5.95)"/><path d="M87.84,30.84a40,40,0,0,0-8.49-11.38c-.71-.66-1.77.4-1.06,1.06A38.71,38.71,0,0,1,86.55,31.6c.43.86,1.72.1,1.29-.76Z" transform="translate(-15.78 -5.95)"/><path d="M101.22,50.27a55.16,55.16,0,0,0-2.88-11.6c-.33-.9-1.78-.51-1.44.4a55.85,55.85,0,0,1,2.88,11.59.75.75,0,0,0,.92.53.77.77,0,0,0,.52-.92Z" transform="translate(-15.78 -5.95)"/><path d="M96.94,72.93V63.14a.75.75,0,0,0-1.5,0v9.79a.75.75,0,0,0,1.5,0Z" transform="translate(-15.78 -5.95)"/><path d="M88.58,78.16l-.41-2.52a.75.75,0,0,0-1.37-.18.8.8,0,0,0-.07.57l.4,2.53a.72.72,0,0,0,.35.45.74.74,0,0,0,.58.08.73.73,0,0,0,.44-.35.89.89,0,0,0,.08-.58Z" transform="translate(-15.78 -5.95)"/><path d="M75.33,85.78c-3.78.94-7.71,1.93-11.6,1-.93-.23-1.33,1.22-.4,1.44,4.17,1,8.34,0,12.4-1a.75.75,0,0,0-.4-1.44Z" transform="translate(-15.78 -5.95)"/><path d="M61.33,82.78c-7.49,1.59-14.73-.76-21.8-3-.93-.29-1.32,1.15-.4,1.45,7.35,2.33,14.82,4.66,22.6,3,1-.2.55-1.64-.4-1.44Z" transform="translate(-15.78 -5.95)"/><path d="M57.61,74.74a29.4,29.4,0,0,1-9.24-2.83c-.86-.44-1.62.86-.75,1.29a30.25,30.25,0,0,0,9.59,3,.78.78,0,0,0,.92-.52.76.76,0,0,0-.52-.93Z" transform="translate(-15.78 -5.95)"/><path d="M40.63,71.74c-6-.89-10.88-4.88-14.45-9.62-.57-.76-1.88,0-1.29.76,3.78,5,8.93,9.36,15.34,10.3.94.14,1.35-1.31.4-1.44Z" transform="translate(-15.78 -5.95)"/><path d="M34.41,57.16a32,32,0,0,1-5.35-10.5.75.75,0,0,0-1.45.4,33.93,33.93,0,0,0,5.74,11.16.75.75,0,0,0,1.06,0,.76.76,0,0,0,0-1.06Z" transform="translate(-15.78 -5.95)"/><path d="M27.21,36.7a43,43,0,0,1-2.39-6.38.75.75,0,0,0-1.45.4,45.84,45.84,0,0,0,2.54,6.73.76.76,0,0,0,1,.27.77.77,0,0,0,.27-1Z" transform="translate(-15.78 -5.95)"/><path d="M19.26,48.3c-1-2.85-2-5.76-2-8.8a.75.75,0,0,0-1.5,0,30.06,30.06,0,0,0,2,9.2c.3.91,1.75.52,1.45-.4Z" transform="translate(-15.78 -5.95)"/><path d="M25.73,10.78c-.81-.25-1.62-.51-2.46-.68a18.73,18.73,0,0,0-3.74-.35.75.75,0,0,0,0,1.5q1,0,2,.09c.48.05.92.12,1.44.22.81.17,1.59.42,2.38.66a.75.75,0,0,0,.4-1.44Z" transform="translate(-15.78 -5.95)"/><path d="M55.46,8.36A26.52,26.52,0,0,0,46.54,7a.75.75,0,0,0,0,1.5,25.21,25.21,0,0,1,8.52,1.36c.91.31,1.31-1.14.4-1.45Z" transform="translate(-15.78 -5.95)"/><path d="M42,64.78,38.58,63a.75.75,0,1,0-.76,1.3l3.4,1.78a.76.76,0,0,0,1-.27.75.75,0,0,0-.27-1Z" transform="translate(-15.78 -5.95)"/><path d="M81.82,69.94V64.72a.77.77,0,0,0-.75-.75.76.76,0,0,0-.75.75v5.22a.75.75,0,0,0,1.5,0Z" transform="translate(-15.78 -5.95)"/></g></svg>