<svg id="Layer_3" data-name="Layer 3" xmlns="http://www.w3.org/2000/svg" xmlns:xlink="http://www.w3.org/1999/xlink" viewBox="0 0 1307.94 165.52"><defs><style>.cls-1{fill:none;}.cls-2{clip-path:url(#clip-path);}.cls-3{fill:#f2a289;}.cls-4{fill:#222;}</style><clipPath id="clip-path"><rect class="cls-1" y="-705.54" width="1307.94" height="922.75"/></clipPath></defs><g class="cls-2"><path class="cls-3" d="M1901.54,21.11c95.16-59.26-368.54-139.77-482.2-235.47C1126.91-460.43-137.11-356-299.76-62.21-362.9,51.89-182.9,135.67,52.1,128.14c201.45-6.44,306.72-66.43,638.66-66.6,236.24-.13,403,98.29,703.37,91C1609.54,147.34,1867.49,42.34,1901.54,21.11Z"/><path class="cls-4" d="M1949.36,14.66c95.15-59.26-368.5-139.8-482.2-235.47C1174.73-466.88-89.29-362.47-251.9-68.62-315,45.48-135,129.26,100,121.73c201.46-6.45,306.72-66.43,638.66-66.61,236.28-.16,403,98.26,703.38,91C1657.36,140.92,1915.31,35.87,1949.36,14.66Z"/></g></svg>