<svg id="Layer_3" data-name="Layer 3" xmlns="http://www.w3.org/2000/svg" xmlns:xlink="http://www.w3.org/1999/xlink" viewBox="0 0 1307.94 165.52"><defs><style>.cls-1{fill:none;}.cls-2{clip-path:url(#clip-path);}.cls-3{fill:#f2a289;}.cls-4{fill:#222;}</style><clipPath id="clip-path"><rect class="cls-1" y="-705.54" width="1307.94" height="922.75"/></clipPath></defs><g class="cls-2"><path class="cls-3" d="M1394.13,2.77C1093.75-4.49,927,93.93,690.76,93.8,358.82,93.63,253.55,33.64,52.1,27.2c-235-7.53-415,76.25-351.86,190.35,162.65,293.81,1426.67,398.22,1719.1,152.15C1533,274,1996.7,193.49,1901.54,134.23,1867.49,113,1609.54,8,1394.13,2.77Z"/><path class="cls-4" d="M1442,9.22c-300.38-7.26-467.1,91.16-703.38,91-331.94-.18-437.2-60.16-638.66-66.61-235-7.53-415,76.25-351.86,190.35C-89.29,517.81,1174.73,622.22,1467.16,376.15c113.7-95.67,577.35-176.21,482.2-235.47C1915.31,119.47,1657.36,14.42,1442,9.22Z"/></g></svg>