<svg id="Layer_1" data-name="Layer 1" xmlns="http://www.w3.org/2000/svg" xmlns:xlink="http://www.w3.org/1999/xlink" viewBox="0 0 196.65 226.69"><defs><style>.cls-1{fill:#231f20;}.cls-2{fill:url(#radial-gradient);}.cls-3{fill:#f7a280;opacity:0.5;}.cls-4{fill:#fff;}</style><radialGradient id="radial-gradient" cx="121.13" cy="138.58" r="110.72" gradientTransform="translate(92.41 70.47) scale(0.36 0.37)" gradientUnits="userSpaceOnUse"><stop offset="0" stop-color="#e69a80"/><stop offset="1" stop-color="#ad4860"/></radialGradient></defs><path class="cls-1" d="M97.94,94.21c-19,26.52-29.63,82.24-28.51,121.62C142.38,191.5,174,158.49,181.78,145.75c8.39-13.59,38.57-83.39,44.16-112C193.52,38,120.3,67,97.94,94.21Z" transform="translate(-35.35 -12.3)"/><path class="cls-2" d="M136.38,81.78c-19,5.09-31.18,18.55-39,40.41-7.49,20.94,17.79,44.27,39,40.42s35.57-17.23,39-40.42C178.68,100.13,157.24,76.18,136.38,81.78Z" transform="translate(-35.35 -12.3)"/><path class="cls-3" d="M96.07,128.91c-.47,10.47,6.14,20.74,15.38,27.24a359.29,359.29,0,0,1,24.38-32.85A145.71,145.71,0,0,0,96.07,128.91Z" transform="translate(-35.35 -12.3)"/><path class="cls-1" d="M135.7,110.5a11.29,11.29,0,1,0,10.89,11.28A11.08,11.08,0,0,0,135.7,110.5Z" transform="translate(-35.35 -12.3)"/><path class="cls-4" d="M153.83,117.26a24.69,24.69,0,0,0-16.76,3.84,40,40,0,0,1,16.56,2.9l.21-4.84" transform="translate(-35.35 -12.3)"/><path d="M41.35,151.35a150.57,150.57,0,0,1,11-51.45c.61-1.5-.66-3.3-2.09-3.69a3.07,3.07,0,0,0-3.69,2.1,155,155,0,0,0-11.23,53c-.13,3.86,5.87,3.85,6,0Z" transform="translate(-35.35 -12.3)"/><path d="M81.24,76.6a120.42,120.42,0,0,1,29.52-37.74,113.19,113.19,0,0,1,10.7-8,3,3,0,1,0-3-5.18A124.46,124.46,0,0,0,76.06,73.57a3.08,3.08,0,0,0,1.07,4.11,3,3,0,0,0,4.11-1.08Z" transform="translate(-35.35 -12.3)"/><path d="M152.31,34.24c.39-.36.8-.71,1.21-1.05.09-.08.62-.5.42-.35s.44-.32.57-.42c1.09-.81,2.23-1.55,3.38-2.26a74.15,74.15,0,0,1,8.17-4.33,88,88,0,0,1,19.82-6.36,62.77,62.77,0,0,1,11.6-1.17c3.86,0,3.87-6,0-6A77.08,77.08,0,0,0,175,16.06a90.37,90.37,0,0,0-19.26,8.41A46.58,46.58,0,0,0,148.07,30a3,3,0,1,0,4.24,4.24Z" transform="translate(-35.35 -12.3)"/><path d="M41.08,72.25A120.1,120.1,0,0,1,65.9,37.73c2.78-2.69-1.46-6.93-4.24-4.24A124.67,124.67,0,0,0,35.9,69.22,3.07,3.07,0,0,0,37,73.32a3,3,0,0,0,4.1-1.07Z" transform="translate(-35.35 -12.3)"/><path d="M115.17,237.16c19.8,4.48,40.45.13,59.34-6.21,3.11-1,6.18-2.19,9.3-3.2a3.06,3.06,0,0,0,2.09-3.69,3,3,0,0,0-3.69-2.1c-6.34,2.07-12.58,4.4-19,6.21A118.18,118.18,0,0,1,134.36,233a70.77,70.77,0,0,1-17.6-1.59,3,3,0,0,0-1.59,5.79Z" transform="translate(-35.35 -12.3)"/><path d="M129.21,212a89.8,89.8,0,0,0,29.14-9.42,3,3,0,0,0,1.08-4.1,3.06,3.06,0,0,0-4.11-1.08,84.94,84.94,0,0,1-27.71,8.81c-1.6.22-2.48,2.28-2.09,3.69a3.08,3.08,0,0,0,3.69,2.1Z" transform="translate(-35.35 -12.3)"/><path d="M180.49,202.62c15.63-2.32,29.12-11.8,39.44-23.39a114.72,114.72,0,0,0,7.31-9.14,3,3,0,0,0-1.08-4.11,3.07,3.07,0,0,0-4.1,1.08c-.91,1.25-1.74,2.36-2.49,3.3-1,1.27-2,2.52-3.11,3.75a91.68,91.68,0,0,1-7.2,7.42,63.55,63.55,0,0,1-18,11.89,51.75,51.75,0,0,1-12.35,3.41c-1.6.24-2.49,2.27-2.09,3.69a3.08,3.08,0,0,0,3.69,2.1Z" transform="translate(-35.35 -12.3)"/><path d="M202,155a106.1,106.1,0,0,0,17.05-34.58c1.06-3.72-4.72-5.3-5.78-1.59A101.62,101.62,0,0,1,196.85,152c-1,1.29-.21,3.35,1.08,4.1A3.07,3.07,0,0,0,202,155Z" transform="translate(-35.35 -12.3)"/><path d="M224.15,90.56a151.12,151.12,0,0,0,7.74-21.21,3,3,0,0,0-5.78-1.6A141.39,141.39,0,0,1,219,87.53,3.09,3.09,0,0,0,220,91.64a3,3,0,0,0,4.11-1.08Z" transform="translate(-35.35 -12.3)"/><path d="M177.68,180.31l10.25-5.58a3,3,0,0,0,1.07-4.1,3.06,3.06,0,0,0-4.1-1.08l-10.25,5.58a3,3,0,0,0-1.08,4.1,3.07,3.07,0,0,0,4.11,1.08Z" transform="translate(-35.35 -12.3)"/><path d="M51.8,197.59a179.28,179.28,0,0,1,.69-20.6,79.72,79.72,0,0,1,4.9-18.55,3,3,0,0,0-2.09-3.69,3.07,3.07,0,0,0-3.69,2.1,82.24,82.24,0,0,0-5.08,19.8,176.28,176.28,0,0,0-.73,20.94c0,3.86,6,3.87,6,0Z" transform="translate(-35.35 -12.3)"/></svg>