<svg id="Layer_3" data-name="Layer 3" xmlns="http://www.w3.org/2000/svg" xmlns:xlink="http://www.w3.org/1999/xlink" viewBox="0 0 1302.78 922.75"><defs><style>.cls-1{fill:none;}.cls-2{clip-path:url(#clip-path);}.cls-3{fill:#ffebd9;}.cls-4{fill:#ffd8b4;}.cls-5{fill:#f5a191;}.cls-6{fill:#d57f7b;}.cls-7{fill:#bf5827;opacity:0.15;}</style><clipPath id="clip-path"><rect class="cls-1" width="1302.78" height="922.75"/></clipPath></defs><g class="cls-2"><path class="cls-3" d="M1211.31-262.28C872.48-279.67,719.94-130,520.23-116.22c-330,22.84-460-34.18-754.41,4.46-145.51,19.09-293.27,66.44-219.22,196,190.67,333.7,1458.85,384,1725.76,80.27,103.78-118.1,557.31-238.33,456.81-302.11C1693.2-160.4,1425.91-251.27,1211.31-262.28Z"/><path class="cls-4" d="M1548.92,135.55c-331.63-37.15-543.95-35.49-749.13.17-325.87,56.64-402.6-55-697-16.4-145.51,19.1-293.26,66.45-219.22,196,190.68,333.7,1458.86,384,1725.77,80.27,103.77-118.1,557.31-238.34,456.8-302.12C2030.13,70.69,1762,159.42,1548.92,135.55Z"/><path class="cls-5" d="M952.54,160.34c-336.95-34.43-608.41,68.39-808,66.79-329.76-2.65-343.66-51-638.67-39.18-145.79,5.84-295,33.49-226.51,138.71,176.32,271,1438.06,388.38,1716.5,169C1104.13,410.3,1561,344.94,1463.49,289.19,1428.58,269.24,1165.94,182.15,952.54,160.34Z"/><path class="cls-6" d="M1319.39,264.76c-333.54-52.08-507.6,80.69-707.84,73.88-330.85-11.27-451.18-81.2-749.18-73.14-147.27,4-257.35,25.89-247.26,172,52.59,761.47,1401.31,814.25,1712.24,540.33,120.89-106.51,577-462.47,486.91-536.08C1782,415.38,1530.63,297.74,1319.39,264.76Z"/><rect class="cls-7" width="1302.78" height="922.75"/></g></svg>